<svg width="160" height="120" viewBox="0 0 160 120" fill="none" xmlns="http://www.w3.org/2000/svg" role="img" aria-labelledby="title desc">
  <title id="title">WhereItFalls Mark</title>
  <desc id="desc">Reentry arc crossing a planetary horizon into a targeting reticle.</desc>
  <rect width="160" height="120" fill="#06080F"/>
  <path d="M2 70C29 55 62 48 101 48C120 48 139 52 158 61" stroke="#3DD6C4" stroke-width="2.4" stroke-linecap="round" opacity=".64"/>
  <path d="M26 14C67 20 105 43 136 93" stroke="#F0A202" stroke-width="5.5" stroke-linecap="round"/>
  <path d="M26 14C67 20 105 43 136 93" stroke="#FFB21A" stroke-width="2.2" stroke-linecap="round"/>
  <circle cx="26" cy="14" r="7" fill="#F0A202"/>
  <g transform="translate(104 63)" stroke="#F0A202" stroke-linecap="round">
    <circle cx="24" cy="24" r="20" stroke-width="4.5"/>
    <path d="M24 0V15M24 33v15M0 24h15M33 24h15" stroke-width="5.5"/>
    <path d="M12 14 24 24" stroke-width="3.5"/>
    <circle cx="24" cy="24" r="7" fill="#F0A202" stroke="none"/>
  </g>
</svg>
